<svg width="386" height="44" viewBox="0 0 386 44" fill="none" xmlns="http://www.w3.org/2000/svg">
<path fill-rule="evenodd" clip-rule="evenodd" d="M20.8751 43.4616L1.2536 34.403C-0.417865 33.6122 -0.417865 32.39 1.2536 31.6711L8.08479 28.5078L20.8024 34.403C22.4739 35.1939 25.1628 35.1939 26.7616 34.403L39.4792 28.5078L46.3104 31.6711C47.9818 32.4619 47.9818 33.6841 46.3104 34.403L26.6889 43.4616C25.1628 44.1805 22.4739 44.1805 20.8751 43.4616Z" fill="#FF6F3D"/>
<path fill-rule="evenodd" clip-rule="evenodd" d="M20.8115 32.2507L1.24978 23.1817C-0.416592 22.3899 -0.416592 21.1663 1.24978 20.4465L7.91526 17.3516L20.8115 23.3256C22.4779 24.1173 25.1586 24.1173 26.7525 23.3256L39.6487 17.3516L46.3142 20.4465C47.9806 21.2383 47.9806 22.4619 46.3142 23.1817L26.7525 32.2507C25.0861 33.0424 22.4054 33.0424 20.8115 32.2507Z" fill="#95C038"/>
<path fill-rule="evenodd" clip-rule="evenodd" d="M20.8115 21.1581L1.24978 12.2195C-0.416592 11.4392 -0.416592 10.2332 1.24978 9.52379L20.8115 0.585261C22.4779 -0.195087 25.1586 -0.195087 26.7525 0.585261L46.3142 9.52379C47.9806 10.3041 47.9806 11.5101 46.3142 12.2195L26.7525 21.1581C25.0861 21.8675 22.4054 21.8675 20.8115 21.1581Z" fill="#5DC0E8"/>
<path fill-rule="evenodd" clip-rule="evenodd" d="M312.921 31.1636C314.331 30.0759 315.036 28.5602 315.036 26.6165C315.036 25.1058 314.598 23.8772 313.722 22.9305C312.856 21.9838 311.264 21.0975 308.948 20.2717C307.568 19.7782 306.541 19.3301 305.866 18.9272C305.202 18.5143 304.728 18.0661 304.446 17.5827C304.164 17.0893 304.023 16.4598 304.023 15.6944C304.023 14.6571 304.406 13.8464 305.171 13.2622C305.937 12.6781 306.999 12.3861 308.359 12.3861C310.081 12.3861 311.854 12.7688 313.676 13.5342L314.477 11.2984C312.634 10.4927 310.615 10.0898 308.419 10.0898C306.314 10.0898 304.622 10.5934 303.343 11.6005C302.064 12.6076 301.425 13.9622 301.425 15.6642C301.425 17.2856 301.863 18.5999 302.739 19.607C303.625 20.6141 305.096 21.4853 307.15 22.2205C308.621 22.7442 309.713 23.2125 310.428 23.6254C311.154 24.0383 311.667 24.4915 311.969 24.985C312.282 25.4684 312.438 26.0928 312.438 26.8582C312.438 28.0164 312.005 28.9228 311.138 29.5774C310.272 30.222 308.983 30.5442 307.271 30.5442C306.224 30.5442 305.166 30.4334 304.099 30.2119C303.031 29.9903 302.044 29.6882 301.138 29.3055V31.783C302.548 32.4577 304.562 32.7951 307.181 32.7951C309.598 32.7951 311.511 32.2513 312.921 31.1636ZM262.139 29.6076C264.123 27.674 265.115 24.8843 265.115 21.2385C265.115 17.8244 264.163 15.1657 262.26 13.2622C260.357 11.3588 257.688 10.4071 254.254 10.4071H247.486V32.493H253.604C257.32 32.493 260.165 31.5312 262.139 29.6076ZM260.221 14.8182C261.671 16.2785 262.396 18.4488 262.396 21.3292C262.396 24.28 261.626 26.5108 260.085 28.0214C258.544 29.522 256.243 30.2723 253.181 30.2723H250.054V12.6278H253.785C256.635 12.6278 258.781 13.3579 260.221 14.8182ZM281.62 30.5291C282.979 29.0084 283.659 26.8985 283.659 24.1994C283.659 21.5709 282.974 19.4862 281.604 17.9453C280.245 16.4044 278.407 15.634 276.09 15.634C273.694 15.634 271.82 16.3893 270.471 17.9C269.121 19.4006 268.447 21.5004 268.447 24.1994C268.447 25.9417 268.759 27.4625 269.383 28.7616C270.008 30.0608 270.894 31.0579 272.042 31.7528C273.19 32.4477 274.504 32.7951 275.985 32.7951C278.382 32.7951 280.26 32.0398 281.62 30.5291ZM272.314 29.0336C271.468 27.9257 271.045 26.3144 271.045 24.1994C271.045 22.0644 271.463 20.458 272.299 19.3804C273.135 18.3028 274.373 17.764 276.015 17.764C277.677 17.764 278.931 18.3129 279.777 19.4106C280.633 20.4983 281.061 22.0946 281.061 24.1994C281.061 26.3244 280.633 27.9409 279.777 29.0487C278.931 30.1464 277.687 30.6953 276.045 30.6953C274.404 30.6953 273.16 30.1414 272.314 29.0336ZM294.377 32.7951C291.98 32.7951 290.122 32.0599 288.803 30.5895C287.494 29.1091 286.839 27.0193 286.839 24.3203C286.839 21.5507 287.504 19.4106 288.833 17.9C290.173 16.3893 292.076 15.634 294.544 15.634C295.339 15.634 296.135 15.7196 296.93 15.8908C297.726 16.062 298.35 16.2634 298.804 16.4951L298.033 18.6251C297.479 18.4035 296.875 18.2222 296.22 18.0813C295.566 17.9302 294.987 17.8547 294.483 17.8547C291.119 17.8547 289.438 19.9998 289.438 24.2901C289.438 26.3244 289.845 27.8855 290.661 28.9731C291.487 30.0608 292.706 30.6047 294.317 30.6047C295.697 30.6047 297.112 30.3076 298.562 29.7134V31.934C297.454 32.5081 296.059 32.7951 294.377 32.7951ZM326.57 32.7951C325.493 32.7951 324.506 32.5987 323.609 32.206C322.723 31.8031 321.978 31.1888 321.374 30.3629H321.192C321.313 31.3298 321.374 32.2462 321.374 33.1124V39.9254H318.866V15.9361H320.905L321.253 18.2021H321.374C322.018 17.2957 322.768 16.6411 323.624 16.2382C324.48 15.8354 325.462 15.634 326.57 15.634C328.766 15.634 330.458 16.3843 331.646 17.8849C332.845 19.3855 333.444 21.4903 333.444 24.1994C333.444 26.9186 332.834 29.0336 331.616 30.5442C330.407 32.0448 328.725 32.7951 326.57 32.7951ZM326.208 17.764C324.516 17.764 323.292 18.2323 322.537 19.1689C321.781 20.1055 321.394 21.5961 321.374 23.6405V24.1994C321.374 26.5259 321.761 28.1926 322.537 29.1997C323.312 30.1968 324.556 30.6953 326.268 30.6953C327.698 30.6953 328.816 30.1162 329.622 28.958C330.438 27.7999 330.845 26.2036 330.845 24.1692C330.845 22.1047 330.438 20.5235 329.622 19.4257C328.816 18.3179 327.678 17.764 326.208 17.764ZM347.214 30.1363L347.712 32.493H349.57V21.1932C349.57 19.2596 349.092 17.8547 348.135 16.9785C347.189 16.1023 345.728 15.6642 343.754 15.6642C342.777 15.6642 341.801 15.7901 340.824 16.0419C339.857 16.2936 338.966 16.6411 338.15 17.0842L338.92 19.0028C340.663 18.1568 342.224 17.7338 343.603 17.7338C344.832 17.7338 345.723 18.046 346.277 18.6704C346.841 19.2847 347.123 20.2415 347.123 21.5407V22.5679L344.313 22.6586C338.966 22.8197 336.292 24.5721 336.292 27.9157C336.292 29.4767 336.755 30.6802 337.681 31.5262C338.618 32.3721 339.907 32.7951 341.549 32.7951C342.777 32.7951 343.8 32.6138 344.615 32.2513C345.441 31.8786 346.267 31.1737 347.093 30.1363H347.214ZM345.718 29.4414C344.832 30.2975 343.608 30.7255 342.047 30.7255C341.06 30.7255 340.29 30.4888 339.736 30.0155C339.192 29.5422 338.92 28.8523 338.92 27.9459C338.92 26.7877 339.358 25.9367 340.234 25.3929C341.121 24.839 342.561 24.5268 344.555 24.4563L347.063 24.3505V25.8461C347.063 27.3869 346.615 28.5854 345.718 29.4414ZM361.059 32.7951C358.662 32.7951 356.804 32.0599 355.485 30.5895C354.176 29.1091 353.521 27.0193 353.521 24.3203C353.521 21.5507 354.186 19.4106 355.515 17.9C356.855 16.3893 358.758 15.634 361.225 15.634C362.021 15.634 362.817 15.7196 363.612 15.8908C364.408 16.062 365.032 16.2634 365.486 16.4951L364.715 18.6251C364.161 18.4035 363.557 18.2222 362.902 18.0813C362.248 17.9302 361.669 17.8547 361.165 17.8547C357.801 17.8547 356.119 19.9998 356.119 24.2901C356.119 26.3244 356.527 27.8855 357.343 28.9731C358.169 30.0608 359.387 30.6047 360.999 30.6047C362.379 30.6047 363.794 30.3076 365.244 29.7134V31.934C364.136 32.5081 362.741 32.7951 361.059 32.7951ZM370.071 30.5593C371.491 32.0499 373.424 32.7951 375.872 32.7951C376.99 32.7951 377.941 32.7095 378.727 32.5383C379.522 32.3772 380.363 32.1052 381.25 31.7225V29.4868C379.507 30.232 377.745 30.6047 375.962 30.6047C374.27 30.6047 372.956 30.1011 372.019 29.094C371.093 28.0869 370.604 26.6115 370.554 24.6677H381.96V23.0815C381.96 20.8458 381.355 19.0481 380.147 17.6885C378.938 16.3188 377.297 15.634 375.222 15.634C373.006 15.634 371.239 16.4195 369.92 17.9906C368.61 19.5617 367.956 21.6817 367.956 24.3505C367.956 26.9992 368.661 29.0688 370.071 30.5593ZM372.004 19.033C372.8 18.1669 373.862 17.7338 375.192 17.7338C376.501 17.7338 377.508 18.1568 378.213 19.0028C378.918 19.8387 379.271 21.0472 379.271 22.6284H370.615C370.755 21.0975 371.219 19.8991 372.004 19.033ZM58.6653 21.8392C58.6653 13.9198 64.0644 10.6772 69.5587 10.6772C75.0531 10.6772 80.4522 13.9198 80.4522 21.8392C80.4522 29.7587 75.0531 33.0013 69.5587 33.0013C64.0644 33.0013 58.6653 29.7587 58.6653 21.8392ZM75.6883 21.8392C75.6883 14.4498 71.242 13.7951 69.5587 13.7951C67.8755 13.7951 63.4292 14.4498 63.4292 21.8392C63.4292 29.2287 67.8755 29.8834 69.5587 29.8834C71.242 29.8834 75.6883 29.2287 75.6883 21.8392ZM88.626 32.7519H84.1162V10.9266H89.9599L97.6457 24.6765L98.8208 27.6385H98.916L98.8208 23.7723V10.9266H103.331V32.7519H97.4869L89.7376 18.4719L88.626 16.04H88.5307L88.626 19.9061V32.7519ZM107.781 32.7519H121.12V29.0728H112.29V10.9266H107.781V32.7519ZM125.502 23.8347L117.308 10.9266H122.517L127.09 18.5966L127.789 20.0932H127.884L128.647 18.5966L133.252 10.9266H138.016L130.012 23.8971V32.7519H125.502V23.8347ZM148.523 10.6772C143.029 10.6772 137.629 13.9198 137.629 21.8392C137.629 29.7587 143.029 33.0013 148.523 33.0013C154.017 33.0013 159.416 29.7587 159.416 21.8392C159.416 13.9198 154.017 10.6772 148.523 10.6772ZM148.523 13.7951C150.206 13.7951 154.652 14.4498 154.652 21.8392C154.652 29.2287 150.206 29.8834 148.523 29.8834C146.84 29.8834 142.393 29.2287 142.393 21.8392C142.393 14.4498 146.84 13.7951 148.523 13.7951ZM167.59 32.7519H163.08V10.9266H175.53V14.6057H167.59V19.9061H175.149V23.4917H167.59V32.7519ZM178.712 32.7519H183.222V23.4917H190.78V19.9061H183.222V14.6057H191.162V10.9266H178.712V32.7519ZM198.853 32.7519H194.343V10.9266H198.853V32.7519ZM219.536 28.3556C218.424 28.8545 216.868 29.3222 214.899 29.3222C210.897 29.3222 207.277 27.1708 207.277 21.9016C207.277 17.443 210.23 14.3563 215.217 14.3563C216.9 14.3563 218.329 14.6681 219.631 15.1669L219.822 11.4255C218.138 10.8954 216.646 10.6772 214.899 10.6772C207.912 10.6772 202.513 14.4498 202.513 21.964C202.513 29.9146 208.547 33.0013 214.073 33.0013C215.852 33.0013 217.853 32.7207 219.822 32.0659L219.536 28.3556ZM236.587 32.7519H223.311V10.9266H236.587V14.7928H227.821V19.7191H235.793V23.3047H227.821V28.8857H236.587V32.7519Z" fill="#333333"/>
</svg>
