<svg width="10" height="12" viewBox="0 0 10 12" fill="none" xmlns="http://www.w3.org/2000/svg">
<path d="M10 10.0239H9.00003L9.00002 8.71673C9.00002 8.43473 8.88095 8.16584 8.67215 7.9763L6.905 6.37218C6.68564 6.17306 6.68654 5.82795 6.90695 5.62998L8.66827 4.048C8.87943 3.85834 9.00005 3.58787 9.00005 3.30403V2.02393H10V0.0239258L2.06325e-05 0C2.07032e-05 0.5 3.05623e-05 1.52393 3.05176e-05 2.02393H1.00005V3.30404C1.00005 3.58787 1.12067 3.85834 1.33183 4.048L3.09311 5.62998C3.31351 5.82795 3.31442 6.17306 3.09506 6.37218L1.3279 7.9763C1.11909 8.16584 1.00002 8.43474 1.00002 8.71674L1.00003 10.0239H1.04904e-05V12L10 12.0239V10.0239ZM3.00002 9.43839C3.00002 9.07089 3.39307 8.72592 3.65308 8.46591L4.73498 7.52393C4.88156 7.37744 5.11904 7.37744 5.26553 7.52393L6.34754 8.46591C6.60754 8.72592 7.00002 9.07089 7.00002 9.43839L7.00003 10.0239H3.00003L3.00002 9.43839Z" fill="#A3A9AE"/>
</svg>
