<svg width="48" height="44" viewBox="0 0 48 44" fill="none" xmlns="http://www.w3.org/2000/svg">
<path fill-rule="evenodd" clip-rule="evenodd" d="M20.8751 43.4606L1.2536 34.4021C-0.417865 33.6112 -0.417865 32.3891 1.2536 31.6701L8.08479 28.5068L20.8024 34.4021C22.4739 35.1929 25.1628 35.1929 26.7616 34.4021L39.4792 28.5068L46.3104 31.6701C47.9818 32.461 47.9818 33.6831 46.3104 34.4021L26.6889 43.4606C25.1628 44.1795 22.4739 44.1795 20.8751 43.4606Z" fill="#FF6F3D"/>
<path fill-rule="evenodd" clip-rule="evenodd" d="M20.8115 32.2507L1.24978 23.1817C-0.416592 22.3899 -0.416592 21.1663 1.24978 20.4465L7.91526 17.3516L20.8115 23.3256C22.4779 24.1173 25.1586 24.1173 26.7525 23.3256L39.6487 17.3516L46.3142 20.4465C47.9806 21.2383 47.9806 22.4619 46.3142 23.1817L26.7525 32.2507C25.0861 33.0424 22.4054 33.0424 20.8115 32.2507Z" fill="#95C038"/>
<path fill-rule="evenodd" clip-rule="evenodd" d="M20.8115 21.1581L1.24978 12.2195C-0.416592 11.4392 -0.416592 10.2332 1.24978 9.52379L20.8115 0.585261C22.4779 -0.195087 25.1586 -0.195087 26.7525 0.585261L46.3142 9.52379C47.9806 10.3041 47.9806 11.5101 46.3142 12.2195L26.7525 21.1581C25.0861 21.8675 22.4054 21.8675 20.8115 21.1581Z" fill="#5DC0E8"/>
</svg>
