<svg width="16" height="16" viewBox="0 0 16 16" fill="none" xmlns="http://www.w3.org/2000/svg">
<path fill-rule="evenodd" clip-rule="evenodd" d="M3.75736 3.75748C4.84424 2.6706 6.34287 2.00012 8 2.00012C11.3137 2.00012 14 4.68641 14 8.00012H16C16 3.58184 12.4183 0.00012207 8 0.00012207C5.79413 0.00012207 3.79519 0.89422 2.34903 2.33739L2.34682 2.33953L2.3235 2.3624C2.30404 2.38161 2.27684 2.40874 2.24255 2.44363C2.18243 2.5048 2.10045 2.58988 2 2.69807V1.00012H0V5.00012C0 5.55241 0.447715 6.00012 1 6.00012H5V4.00012H3.52058C3.58201 3.93481 3.632 3.88315 3.66896 3.84554C3.696 3.81803 3.71606 3.79805 3.72851 3.78576L3.7414 3.77311L3.74296 3.77159L3.74328 3.77129L3.74331 3.77126L3.74343 3.77114L3.74997 3.76487L3.75736 3.75748ZM8 14.0001C4.68629 14.0001 2 11.3138 2 8.00012H0C0 12.4184 3.58172 16.0001 8 16.0001C10.3903 16.0001 12.535 14.9514 14 13.2916V15.0001H16V11.0001C16 10.4478 15.5523 10.0001 15 10.0001H11V12.0001H12.4724C11.3728 13.2287 9.77618 14.0001 8 14.0001Z" fill="#AEB2B4"/>
</svg>
